<?xml version="1.0" encoding="UTF-8" standalone="no"?>
<svg
   xmlns:dc="http://purl.org/dc/elements/1.1/"
   xmlns:cc="http://creativecommons.org/ns#"
   xmlns:rdf="http://www.w3.org/1999/02/22-rdf-syntax-ns#"
   xmlns:svg="http://www.w3.org/2000/svg"
   xmlns="http://www.w3.org/2000/svg"
   xmlns:sodipodi="http://sodipodi.sourceforge.net/DTD/sodipodi-0.dtd"
   xmlns:inkscape="http://www.inkscape.org/namespaces/inkscape"
   version="1.1"
   x="0px"
   y="0px"
   width="100px"
   height="100px"
   viewBox="0 0 100 100"
   enable-background="new 0 0 100 100"
   xml:space="preserve"
   id="svg2"
   inkscape:version="0.48.2 r9819"
   sodipodi:docname="noun_project_14400.svg"><metadata
   id="metadata22"><rdf:RDF><cc:Work
       rdf:about=""><dc:format>image/svg+xml</dc:format><dc:type
         rdf:resource="http://purl.org/dc/dcmitype/StillImage" /><dc:title></dc:title></cc:Work></rdf:RDF></metadata><defs
   id="defs20" /><sodipodi:namedview
   pagecolor="#ffffff"
   bordercolor="#666666"
   borderopacity="1"
   objecttolerance="10"
   gridtolerance="10"
   guidetolerance="10"
   inkscape:pageopacity="0"
   inkscape:pageshadow="2"
   inkscape:window-width="640"
   inkscape:window-height="480"
   id="namedview18"
   showgrid="false"
   inkscape:zoom="2.36"
   inkscape:cx="50"
   inkscape:cy="50"
   inkscape:window-x="0"
   inkscape:window-y="0"
   inkscape:window-maximized="0"
   inkscape:current-layer="svg2" />
<g
   id="Captions">
</g>
<g
   id="Your_Icon">
	<g
   id="g6">
		<polygon
   points="44,21 64,21 94,50.75 64,81 44,81 74,50.5   "
   id="polygon8" />
		<path
   d="M64.208,81H42.807l30.486-30.994L42.778,20h21.428l0.146,0.145l30.354,30.103l-0.352,0.355L64.208,81z M45.193,80h18.599    l29.501-29.747L63.794,21H45.222l29.485,28.994L45.193,80z"
   id="path10" />
	</g>
	<g
   id="g12">
		<polygon
   points="6,21 26,21 56,50.75 26,81 6,81 36,50.5   "
   id="polygon14" />
		<path
   d="M26.208,81H4.807l30.486-30.994L4.778,20h21.428l0.146,0.145l30.354,30.103l-0.352,0.355L26.208,81z M7.193,80h18.599    l29.501-29.747L25.794,21H7.222l29.485,28.994L7.193,80z"
   id="path16" />
	</g>
</g>
</svg>