<?xml version="1.0" encoding="UTF-8" standalone="no"?>
<!-- Created with Inkscape (http://www.inkscape.org/) -->

<svg
   xmlns:dc="http://purl.org/dc/elements/1.1/"
   xmlns:cc="http://creativecommons.org/ns#"
   xmlns:rdf="http://www.w3.org/1999/02/22-rdf-syntax-ns#"
   xmlns:svg="http://www.w3.org/2000/svg"
   xmlns="http://www.w3.org/2000/svg"
   xmlns:sodipodi="http://sodipodi.sourceforge.net/DTD/sodipodi-0.dtd"
   xmlns:inkscape="http://www.inkscape.org/namespaces/inkscape"
   version="1.1"
   width="500"
   height="500"
   viewBox="0 0 499.31627 502.39729"
   id="Layer_1"
   xml:space="preserve"
   inkscape:version="0.48.2 r9819"
   sodipodi:docname="NOAA_logo.svg"
   inkscape:export-filename="/Users/aaronr/Dropbox/Z-Pulley/presentations/CoastGIS_2013/images/NOAA_logo.png"
   inkscape:export-xdpi="58.003517"
   inkscape:export-ydpi="58.003517"><metadata
   id="metadata3041"><rdf:RDF><cc:Work
       rdf:about=""><dc:format>image/svg+xml</dc:format><dc:type
         rdf:resource="http://purl.org/dc/dcmitype/StillImage" /><dc:title></dc:title></cc:Work></rdf:RDF></metadata><sodipodi:namedview
   pagecolor="#ffffff"
   bordercolor="#000000"
   borderopacity="1"
   objecttolerance="10"
   gridtolerance="10"
   guidetolerance="10"
   inkscape:pageopacity="0"
   inkscape:pageshadow="2"
   inkscape:window-width="1051"
   inkscape:window-height="754"
   id="namedview3039"
   showgrid="false"
   inkscape:showpageshadow="false"
   inkscape:zoom="1.0074671"
   inkscape:cx="218.77986"
   inkscape:cy="233.86043"
   inkscape:window-x="0"
   inkscape:window-y="0"
   inkscape:window-maximized="0"
   inkscape:current-layer="layer1" /><defs
   id="defs3769" />
<g
   inkscape:groupmode="layer"
   id="layer1"
   inkscape:label="background"
   style="display:inline"><path
     sodipodi:type="arc"
     style="stroke-width:20;stroke-miterlimit:4;stroke-dasharray:none;fill:#ffffff"
     id="path3044"
     sodipodi:cx="259.56183"
     sodipodi:cy="260.28992"
     sodipodi:rx="229.78419"
     sodipodi:ry="237.7249"
     d="m 489.34602,260.28992 a 229.78419,237.7249 0 1 1 -459.568386,0 229.78419,237.7249 0 1 1 459.568386,0 z"
     transform="matrix(1.0764106,0,0,1.0446507,-29.604096,-20.846302)"
     inkscape:export-xdpi="58.003517"
     inkscape:export-ydpi="58.003517" /></g><path
   d="m 429.78217,161.28424 c 0.11036,-0.0454 24.75,48.75 20.37793,100.625 l 0,0 c -2.37793,87.125 -79.37793,185.95899 -194.12792,189.16895 l -16,-0.33301 C 121.78217,444.86823 49.115665,344.53424 49.448673,253.86823 l 0,0 c 0.291992,-16.85498 0.224121,-35.69678 7.333496,-59.00049 l 7.25,2.1665 c 30.305176,11.4541 63.000001,100 169.292491,105.04004 4.61426,0.21875 13.47754,0.42285 13.45752,0.45996 -6.88037,6.86426 -46,23 -63.75,27.25 4.6416,-1.11133 -0.3628,-0.11426 0,0 l 0,0 c 42.75,26.5 85.5,-24.5 140.99999,-32 l 17,-1 c -3.25,-10.25 -17.88183,-9.38476 -19.25,-9.25 -38.39941,3.78028 -28.80663,-0.62402 -30,-0.25 59,-18.5 93,-65.75 135.4629,-123.20996 l 2.5371,-2.79004 z"
   id="path3758"
   style="fill:#007ec6"
   inkscape:connector-curvature="0" />
<path
   d="m 344.03217,73.034244 c -4.12304,-2.192871 -38.75,-23 -91.91601,-23.833496 -115.25439,0.415039 -166.000495,85.000002 -166.000495,85.000002 25.500005,12.5 51.960455,50.14404 52.333005,50.66699 28.53761,40.03955 68.30714,102.1001 119.83546,103.28662 16.49804,0.37988 27.47168,-9.48926 39.99804,-21.62012 45.74415,-44.30273 52.14844,-126.20947 110.75,-137.75 0,0 -21.75,-32.749997 -65,-55.749996 z M 216.33509,127.211 l 13.69738,0 c 5.52577,0 9.97431,4.44854 9.97431,9.97431 l 0,32.96838 c 0,5.52577 -4.44854,9.97431 -9.97431,9.97431 l -13.69738,0 c -5.52577,0 -9.97431,-4.44854 -9.97431,-9.97431 l 0,-32.96838 c 0,-5.52577 4.44854,-9.97431 9.97431,-9.97431 z m 3.64939,9.08 6.39861,0 c 1.27403,0 2.2997,1.02566 2.2997,2.29969 l 0,30.15762 c 0,1.27403 -1.02567,2.29969 -2.2997,2.29969 l -6.39861,0 c -1.27403,0 -2.29969,-1.02566 -2.29969,-2.29969 l 0,-30.15762 c 0,-1.27403 1.02566,-2.29969 2.29969,-2.29969 z m 39.67562,-9.06877 c -5.52577,0 -9.96874,4.44298 -9.96875,9.96875 l 0,42.9375 11.3125,0 0,-21.25 11,0 0,21.25 11.3125,0 0,-42.9375 c 0,-5.52577 -4.44299,-9.96875 -9.96875,-9.96875 l -13.6875,0 z m 3.65625,9.0625 6.375,0 c 1.27402,0 2.3125,1.03847 2.3125,2.3125 l 0,11.21875 -11,0 0,-11.21875 c 0,-1.27403 1.03847,-2.3125 2.3125,-2.3125 z m 39.65332,-9.0625 c -5.52577,0 -9.96874,4.44298 -9.96875,9.96875 l 0,42.9375 11.3125,0 0,-21.25 11,0 0,21.25 11.3125,0 0,-42.9375 c 0,-5.52577 -4.44299,-9.96875 -9.96875,-9.96875 l -13.6875,0 z m 3.65625,9.0625 6.375,0 c 1.27402,0 2.3125,1.03847 2.3125,2.3125 l 0,11.21875 -11,0 0,-11.21875 c 0,-1.27403 1.03847,-2.3125 2.3125,-2.3125 z m -143.60596,-9.0625 0,52.90625 11.34375,0 0,-41.53125 c -1e-5,-1.27403 1.00722,-2.3125 2.28125,-2.3125 l 6.40625,0 c 1.27403,0 2.3125,1.03847 2.3125,2.3125 l 0,41.53125 11.3125,0 0,-42.9375 c 0,-5.52577 -4.44298,-9.96875 -9.96875,-9.96875 l -23.6875,0 z"
   id="path3766"
   style="fill:#263f78;fill-opacity:1;fill-rule:evenodd"
   inkscape:connector-curvature="0" /><path
   d="m 49.762992,321.47852 -20.183341,6.30629 -0.937596,-3.00078 11.715847,-14.00806 c 0.254082,-0.30999 0.498447,-0.58687 0.733095,-0.83065 0.234667,-0.24376 0.461045,-0.44985 0.679134,-0.61828 l -16.360427,5.11183 -0.817721,-2.61712 20.183341,-6.3063 0.929033,2.97338 -11.857161,14.27781 c -0.182687,0.21752 -0.378092,0.42646 -0.586218,0.62684 -0.20809,0.20039 -0.432041,0.3982 -0.671853,0.59344 l 16.360427,-5.11182 0.81344,2.60342 z m -15.440123,-22.19955 -1.361876,-6.44689 -8.453087,5.13096 9.814963,1.31593 z m 9.85981,4.16755 -22.311998,-3.31243 -0.655719,-3.10405 19.060112,-12.08145 0.64385,3.04788 -5.71716,3.4966 1.720889,8.14639 6.645847,0.89964 0.614179,2.90742 z m -4.707053,-25.29682 -18.432538,2.30401 0.827948,6.62374 -2.549787,0.31872 -2.013782,-16.11067 2.549787,-0.31871 0.827947,6.62375 18.432537,-2.30401 0.357888,2.86317 z m -1.244925,-12.0938 -21.09786,1.42019 -0.192829,-2.86461 21.09786,-1.42019 0.192829,2.86461 z m -11.155998,-9.59538 c 2.708393,0.009 4.82782,-0.60893 6.358288,-1.85295 1.530476,-1.244 2.299268,-2.97137 2.306376,-5.18211 0.0071,-2.20114 -0.750613,-3.92385 -2.273086,-5.16813 -1.522465,-1.24424 -3.637891,-1.87072 -6.346283,-1.87945 -2.717941,-0.009 -4.839745,0.60413 -6.365418,1.83857 -1.52564,1.23447 -2.292008,2.95227 -2.299107,5.15342 -0.0071,2.21074 0.74818,3.94301 2.265817,5.19682 1.51767,1.25382 3.635472,1.88509 6.353413,1.89383 l 0,0 z m -0.0096,2.97157 c -3.493089,-0.0112 -6.220148,-0.90766 -8.181144,-2.68927 -1.960959,-1.7816 -2.936399,-4.24193 -2.926325,-7.38098 0.01009,-3.12946 0.998911,-5.5739 2.966473,-7.33332 1.9676,-1.75938 4.702747,-2.63345 8.205449,-2.62221 3.493153,0.0113 6.220228,0.90289 8.181234,2.67491 1.96101,1.77206 2.936481,4.22281 2.926416,7.35228 -0.0101,3.13905 -1.001343,5.59305 -2.973743,7.362 -1.972394,1.76896 -4.705164,2.64782 -8.198317,2.63659 l 0,0 z m 10.892892,-23.59976 -21.027718,-2.22973 0.331508,-3.12632 16.316164,-8.20181 c 0.356308,-0.18355 0.690551,-0.34059 1.002728,-0.47111 0.312185,-0.13049 0.6018,-0.2297 0.868846,-0.29764 l -17.044871,-1.80739 0.289123,-2.72661 21.027718,2.22972 -0.32848,3.09777 -16.553002,8.39324 c -0.254055,0.12705 -0.516381,0.24118 -0.786978,0.34241 -0.270565,0.10124 -0.554665,0.19382 -0.8523,0.27774 l 17.044872,1.8074 -0.28761,2.71233 z m -5.35825,-26.5026 1.307733,-6.45809 -9.79503,1.35603 8.487297,5.10206 z m 7.397067,7.73742 -19.166513,-11.89295 0.629649,-3.10945 22.289117,-3.52766 -0.618252,3.05316 -6.635216,0.94131 -1.652473,8.16054 5.74345,3.46258 -0.589762,2.91247 z m 4.423428,-20.60531 -20.313394,-5.8739 0.805517,-2.78568 17.748363,5.13218 2.926978,-10.12222 2.565031,0.74171 -3.732495,12.90791 z m -1.684354,-28.76942 c 2.483036,1.08166 4.673665,1.3548 6.571894,0.81942 1.898231,-0.53536 3.288799,-1.81644 4.171709,-3.84324 0.879082,-2.01799 0.866383,-3.89992 -0.0381,-5.64579 -0.904484,-1.74584 -2.598239,-3.15959 -5.08127,-4.24127 -2.491799,-1.08546 -4.68271,-1.36394 -6.57274,-0.83545 -1.890012,0.52853 -3.274565,1.80179 -4.153662,3.81978 -0.882894,2.0268 -0.876211,3.91655 0.02005,5.66925 0.896286,1.75273 2.590324,3.17183 5.082117,4.2573 l 0,0 z m -1.186765,2.72431 c -3.202482,-1.39506 -5.350751,-3.2991 -6.444813,-5.71212 -1.09403,-2.413 -1.014227,-5.05844 0.239409,-7.93631 1.249844,-2.86906 3.126678,-4.72123 5.630506,-5.55652 2.503848,-0.83524 5.3614,-0.55342 8.572665,0.84544 3.202493,1.3951 5.352672,3.29475 6.450546,5.69897 1.097862,2.40425 1.021882,5.04091 -0.227942,7.90998 -1.253656,2.87787 -3.136506,4.73786 -5.648554,5.57998 -2.512047,0.84213 -5.369316,0.56566 -8.571817,-0.82942 l 0,0 z m 19.814643,-34.10356 1.369375,-2.42504 c 2.180524,1.3742 3.534216,3.14701 4.06108,5.31841 0.526851,2.17144 0.155003,4.38217 -1.115543,6.6322 -1.463494,2.59171 -3.493867,4.12419 -6.091127,4.59742 -2.597259,0.47324 -5.458413,-0.17247 -8.58347,-1.93713 -2.88337,-1.62818 -4.737708,-3.69193 -5.563018,-6.19126 -0.825282,-2.49929 -0.499128,-5.0573 0.978464,-7.67403 1.176451,-2.08335 2.677461,-3.4861 4.503036,-4.20827 1.825593,-0.72212 3.726388,-0.66268 5.702391,0.17835 l -1.383492,2.45004 c -1.348442,-0.45368 -2.596806,-0.42773 -3.745095,0.0779 -1.148272,0.50564 -2.117695,1.45845 -2.908272,2.85846 -1.054077,1.86671 -1.217524,3.68405 -0.490341,5.45202 0.727205,1.768 2.282487,3.32492 4.665851,4.67075 2.250042,1.27056 4.356582,1.75393 6.319624,1.45011 1.963044,-0.3038 3.443376,-1.33906 4.440998,-3.10576 0.851737,-1.50835 1.080607,-3.00848 0.686611,-4.50041 -0.394006,-1.4919 -1.343028,-2.70647 -2.847072,-3.64372 l 0,0 z m 10.103891,-1.38597 -17.362474,-12.06985 8.603758,-12.37651 2.157048,1.49952 -6.981334,10.04265 5.186346,3.60538 6.448722,-9.27648 2.02739,1.40937 -6.448722,9.27649 5.822853,4.04786 7.120634,-10.24303 2.168836,1.50771 -8.743057,12.57689 z m 6.548562,-23.82158 4.221229,-5.05948 -9.26165,-3.46457 5.040421,8.52405 z m 2.828222,10.32402 -11.20608,-19.57604 2.032443,-2.436037 21.285528,7.495027 -1.995657,2.39195 -6.284705,-2.32693 -5.334014,6.39323 3.406176,5.77708 -1.903691,2.28172 z m 13.603659,-16.06773 -14.903813,-15.000427 2.230207,-2.21585 17.832571,3.93526 c 0.392228,0.0825 0.750607,0.17163 1.075137,0.2674 0.32451,0.0958 0.61177,0.20163 0.8618,0.31746 l -12.080895,-12.159207 1.945066,-1.932537 14.903809,15.000434 -2.20984,2.1956 -18.137091,-3.93624 c -0.277251,-0.0618 -0.552768,-0.13881 -0.826552,-0.23107 -0.273768,-0.0922 -0.552571,-0.19971 -0.836408,-0.32245 l 12.080891,12.159207 -1.934882,1.92242 z M 109.80623,90.645463 95.944114,74.677416 l 2.168098,-1.882161 13.862118,15.968048 -2.1681,1.88216 z m 12.68661,-20.176942 2.22024,-1.681231 c 1.45493,2.127511 1.99272,4.292249 1.61337,6.494223 -0.37938,2.201996 -1.59907,4.082941 -3.65907,5.642838 -2.37284,1.796784 -4.84499,2.396283 -7.41644,1.7985 -2.57145,-0.597774 -4.94044,-2.32723 -7.10698,-5.188371 -1.99898,-2.639862 -2.88058,-5.27053 -2.6448,-7.892011 0.23579,-2.621447 1.55155,-4.839234 3.94726,-6.653368 1.90743,-1.444331 3.84225,-2.135143 5.80447,-2.072438 1.96222,0.06276 3.68289,0.872615 5.162,2.429576 l -2.24313,1.698563 c -1.05714,-0.952144 -2.21303,-1.424378 -3.46767,-1.416703 -1.25464,0.0077 -2.52286,0.496875 -3.80465,1.46746 -1.70905,1.294164 -2.58118,2.896921 -2.61639,4.808276 -0.0352,1.911389 0.77335,3.95812 2.42569,6.1402 1.55991,2.060026 3.30093,3.340654 5.22307,3.841887 1.92213,0.501247 3.69194,0.139461 5.30944,-1.08536 1.38097,-1.045705 2.18709,-2.331378 2.41837,-3.857022 0.23125,-1.525619 -0.157,-3.017291 -1.16478,-4.475019 l 0,0 z m 15.52146,-11.090891 5.72754,-3.257658 -7.45829,-6.492709 1.73075,9.750367 z m -0.97221,10.660166 -3.62868,-22.262752 2.7577,-1.568502 17.3049,14.484116 -2.70779,1.540113 -5.06943,-4.383272 -7.23741,4.116431 1.16372,6.604726 -2.58301,1.46914 z m 18.37508,-10.275992 -8.67845,-19.282661 2.86687,-1.290279 15.31054,9.95361 c 0.33818,0.215123 0.64234,0.424563 0.91248,0.628321 0.27011,0.20378 0.50183,0.403843 0.69516,0.600188 l -7.03467,-15.630344 2.50033,-1.125313 8.67846,19.282661 -2.84069,1.278496 -15.59528,-10.061596 c -0.23782,-0.155318 -0.46867,-0.324289 -0.69254,-0.506914 -0.22387,-0.182591 -0.44708,-0.381235 -0.66964,-0.595934 l 7.03468,15.630344 -2.48725,1.119421 z m 20.90927,-28.712903 -4.68223,1.569507 5.12371,15.2853 4.68223,-1.569506 c 2.00536,-0.672205 3.30249,-1.83123 3.8914,-3.477079 0.58887,-1.645831 0.45596,-3.743658 -0.39874,-6.29349 -0.81822,-2.440912 -1.96656,-4.135275 -3.44503,-5.083096 -1.47849,-0.94778 -3.20227,-1.091658 -5.17134,-0.431636 l 0,0 z m -1.45949,20.217315 -6.72059,-20.049196 7.63584,-2.559574 c 2.79481,-0.936813 5.21386,-0.819073 7.25715,0.353221 2.04327,1.172339 3.59264,3.33285 4.64812,6.481538 1.09195,3.257611 1.17231,6.049329 0.24108,8.375164 -0.93126,2.325851 -2.77614,3.951107 -5.53465,4.875774 l -7.52695,2.523073 z m 29.61766,-17.645221 6.46856,-1.254891 -4.99022,-8.536926 -1.47834,9.791817 z m -4.33032,9.789419 3.68159,-22.254065 3.11449,-0.604207 11.76404,19.257635 -3.05812,0.593271 -3.40141,-5.7743 -8.17378,1.585702 -1.00961,6.630032 -2.9172,0.565932 z m 25.37155,-4.288015 -2.00041,-18.467952 -6.63648,0.718847 -0.27671,-2.554685 16.14161,-1.748424 0.27672,2.554686 -6.63647,0.718848 2.00041,18.467952 -2.86867,0.310728 z m 14.4768,-19.312463 0.21367,18.014846 -2.64122,0.03133 -0.25079,-21.144117 4.10538,-0.04869 5.43125,16.115331 c 0.15856,0.457531 0.27523,0.812666 0.35002,1.065406 0.0748,0.252748 0.13243,0.474589 0.17299,0.665524 0.0724,-0.354981 0.14516,-0.671686 0.21844,-0.950118 0.0733,-0.278423 0.15147,-0.542553 0.23466,-0.79239 l 5.2341,-16.241835 4.11973,-0.04886 0.25079,21.144118 -2.78476,0.03303 -0.21368,-18.014846 c -0.0634,0.307041 -0.13627,0.61657 -0.21869,0.928587 -0.0824,0.312052 -0.1697,0.62175 -0.26175,0.929097 l -5.24863,16.227648 -2.71299,0.03218 -5.50286,-16.100125 c -0.0989,-0.266798 -0.18841,-0.552866 -0.2686,-0.858203 -0.0802,-0.305303 -0.15588,-0.634604 -0.22706,-0.987904 l 0,0 z m 25.06142,7.748182 c -0.26486,2.695424 0.14954,4.863772 1.24321,6.505049 1.09366,1.641284 2.74056,2.57002 4.94072,2.786209 2.1906,0.215256 3.97726,-0.376091 5.35996,-1.774043 1.38267,-1.397947 2.20645,-3.444628 2.47132,-6.140051 0.26578,-2.70493 -0.14363,-4.875191 -1.22822,-6.510788 -1.08463,-1.635568 -2.72224,-2.560986 -4.91284,-2.776259 -2.20016,-0.216173 -3.99611,0.371858 -5.38784,1.764093 -1.39176,1.392267 -2.22052,3.440862 -2.48631,6.14579 l 0,0 z m -2.95734,-0.290594 c 0.3416,-3.476407 1.49195,-6.106448 3.45106,-7.890129 1.9591,-1.783645 4.50067,-2.521991 7.62469,-2.215039 3.11448,0.306056 5.45442,1.521664 7.01984,3.646828 1.56538,2.125197 2.17682,4.930758 1.8343,8.416692 -0.34162,3.476426 -1.48721,6.106934 -3.43678,7.891533 -1.9496,1.784599 -4.48163,2.523881 -7.59611,2.217847 -3.12403,-0.306974 -5.47326,-1.525899 -7.04771,-3.65678 -1.57447,-2.130876 -2.19089,-4.934524 -1.84929,-8.410952 l 0,0 z m 22.88435,6.106882 2.71736,0.54059 c -0.27062,1.507426 -0.009,2.803622 0.78522,3.888592 0.79409,1.084974 2.00305,1.788983 3.62691,2.112029 1.60505,0.319312 2.93709,0.233024 3.99611,-0.258864 1.05899,-0.491886 1.70426,-1.319785 1.93583,-2.483696 0.31556,-1.586293 -1.18097,-3.137895 -4.48959,-4.65481 -0.19717,-0.08801 -0.34927,-0.157295 -0.4563,-0.20787 -2.68334,-1.22662 -4.3962,-2.340685 -5.13859,-3.342199 -0.74239,-1.001492 -0.96327,-2.257846 -0.66263,-3.769065 0.36786,-1.849099 1.33918,-3.200044 2.91397,-4.052839 1.57477,-0.852758 3.48383,-1.056001 5.72719,-0.609732 2.29026,0.455646 3.97526,1.403165 5.05502,2.842562 1.07973,1.43943 1.42451,3.18881 1.03436,5.248147 l -2.69199,-0.520908 c 0.18248,-1.407843 -0.0772,-2.567028 -0.77918,-3.477558 -0.70196,-0.9105 -1.78976,-1.512342 -3.26341,-1.805528 -1.37981,-0.274479 -2.54293,-0.191179 -3.48936,0.249901 -0.94645,0.441113 -1.51957,1.163832 -1.71937,2.168158 -0.31932,1.605082 1.15092,3.141696 4.41071,4.609844 0.48258,0.222868 0.85344,0.394226 1.11258,0.514073 0.0544,0.0206 0.14833,0.06367 0.28167,0.129218 2.1275,0.979454 3.49571,1.851752 4.10462,2.616896 0.46041,0.579497 0.76936,1.233748 0.92684,1.962755 0.15745,0.729017 0.15402,1.506523 -0.0103,2.33252 -0.39776,1.999298 -1.42998,3.447903 -3.09666,4.345821 -1.66672,0.897914 -3.7203,1.10412 -6.16075,0.618619 -2.51555,-0.500443 -4.34844,-1.526172 -5.49868,-3.07719 -1.15024,-1.551015 -1.54077,-3.524169 -1.17159,-5.919466 l 0,0 z m 24.18632,0.738419 4.6283,1.35808 c 1.60703,0.471563 2.80512,0.543851 3.59426,0.216863 0.78911,-0.326973 1.3669,-1.114916 1.73339,-2.363831 0.35297,-1.20298 0.28945,-2.159157 -0.19058,-2.868536 -0.48006,-0.709353 -1.45932,-1.280951 -2.93779,-1.714797 l -4.83492,-1.418708 -1.99266,6.790929 z m -5.98443,10.197607 5.95373,-20.290139 7.46589,2.190713 c 1.21216,0.355705 2.11755,0.686202 2.71617,0.991494 0.59859,0.305325 1.10542,0.66848 1.52049,1.089467 0.69442,0.692502 1.1327,1.544207 1.31483,2.555115 0.18209,1.010934 0.0993,2.108706 -0.24824,3.29332 -0.33146,1.129534 -0.84422,2.061233 -1.53828,2.795099 -0.6941,0.73388 -1.53902,1.233992 -2.53475,1.500339 -0.57295,0.151051 -1.2059,0.192229 -1.89885,0.123532 -0.69299,-0.06869 -1.79249,-0.32399 -3.29851,-0.765911 l -4.18751,-1.228739 -2.51003,8.554091 -2.75494,-0.808381 z m 17.76167,5.369415 7.83953,-19.638697 2.66649,1.064431 -3.2199,8.066131 10.18599,4.066124 3.2199,-8.066131 2.67982,1.069753 -7.83953,19.638696 -2.67982,-1.069753 3.67228,-9.199389 -10.18599,-4.066124 -3.67228,9.199389 -2.66649,-1.06443 z m 19.63214,8.132333 9.66097,-18.80963 13.40809,6.886642 -1.20024,2.336838 -10.87971,-5.588018 -2.88583,5.618627 10.04968,5.161702 -1.1281,2.196372 -10.04968,-5.161702 -3.24,6.308186 11.09679,5.699516 -1.2068,2.349607 -13.62517,-6.99814 z m 28.98448,-5.509945 -3.83361,6.051236 4.14734,2.627442 c 1.49561,0.947521 2.70631,1.374651 3.63209,1.28139 0.92575,-0.09325 1.74715,-0.705796 2.46421,-1.837628 0.67093,-1.059061 0.85364,-1.991257 0.54816,-2.79659 -0.30553,-0.805317 -1.24248,-1.704786 -2.81085,-2.698408 l -4.14734,-2.627442 z m -1.04776,-3.603709 6.92436,4.386752 c 1.12373,0.71193 1.91963,1.284133 2.38773,1.716608 0.46805,0.432496 0.84058,0.895087 1.11759,1.387772 0.49062,0.888637 0.69896,1.824996 0.625,2.80908 -0.074,0.984096 -0.42598,1.973337 -1.05592,2.967724 -0.60951,0.962056 -1.3368,1.654048 -2.18187,2.075977 -0.84512,0.421932 -1.79885,0.568279 -2.8612,0.43904 0.57232,0.634495 0.86007,1.275621 0.86323,1.92338 0.003,0.647757 -0.3072,1.544428 -0.93097,2.690016 l -1.66071,3.077398 c -0.35909,0.656191 -0.57456,1.179609 -0.64643,1.570256 -0.0719,0.390631 -0.0235,0.730012 0.1452,1.018147 l -0.31499,0.497195 -2.80127,-1.774675 c 0.009,-0.515302 0.35606,-1.411496 1.04052,-2.688586 0.0205,-0.03234 0.0358,-0.0566 0.0461,-0.07276 l 1.32953,-2.420522 c 0.67716,-1.247723 0.91418,-2.185166 0.71107,-2.812334 -0.20313,-0.627168 -1.16165,-1.483653 -2.87555,-2.569459 l -3.92905,-2.489155 -4.84771,7.651964 -2.40109,-1.52115 11.31643,-17.862668 z m 5.03817,28.624131 12.42947,-17.106867 2.32273,1.68764 -12.42947,17.106867 -2.32273,-1.68764 z m 22.51831,7.808746 2.1387,1.7838 c -1.74451,1.89732 -3.73215,2.90953 -5.96295,3.03663 -2.23082,0.12709 -4.3384,-0.6369 -6.32276,-2.29196 -2.2857,-1.90641 -3.42737,-4.179618 -3.42501,-6.819637 0.002,-2.64002 1.15288,-5.33806 3.4516,-8.094127 2.12094,-2.542917 4.48496,-3.995174 7.09206,-4.356777 2.60708,-0.361578 5.06449,0.420021 7.37226,2.344799 1.83735,1.532485 2.94678,3.261624 3.32829,5.187423 0.38146,1.925807 -0.0194,3.784801 -1.20262,5.576987 l -2.16075,-1.802192 c 0.68916,-1.244663 0.8885,-2.477282 0.59802,-3.69786 -0.29052,-1.220571 -1.05313,-2.345769 -2.28782,-3.3756 -1.64631,-1.37309 -3.40448,-1.861224 -5.27452,-1.464406 -1.87007,0.396837 -3.68168,1.646228 -5.43482,3.748178 -1.65508,1.984368 -2.51,3.969379 -2.56475,5.955039 -0.0548,1.985659 0.69689,3.628263 2.25499,4.927803 1.33025,1.10951 2.76462,1.60485 4.30311,1.48605 1.53847,-0.11883 2.90412,-0.83354 4.09697,-2.14415 l 0,0 z m 14.30531,12.61289 4.46861,4.842367 4.63769,-8.733447 -9.1063,3.89108 z m -10.60383,1.4639 20.86524,-8.56966 2.15155,2.33152 -10.19511,20.132277 -2.11261,-2.28931 3.12319,-5.92941 -5.6466,-6.118897 -6.17041,2.627297 -2.01525,-2.183817 z m 33.77973,10.442887 -2.99973,-3.92278 -12.80606,9.79274 2.99973,3.92278 c 1.28476,1.6801 2.80107,2.53256 4.54892,2.5574 1.74784,0.0248 3.68988,-0.77955 5.82614,-2.41311 2.045,-1.56382 3.27679,-3.19852 3.6954,-4.9041 0.41856,-1.70559 -0.003,-3.38323 -1.2644,-5.03293 l 0,0 z m -19.60244,5.1589 16.79726,-12.84479 4.89201,6.39733 c 1.79051,2.3415 2.46162,4.66858 2.01332,6.98123 -0.44835,2.31264 -1.99151,4.47759 -4.62948,6.49486 -2.72924,2.08701 -5.34487,3.06612 -7.84689,2.93732 -2.50204,-0.12882 -4.6367,-1.34877 -6.40398,-3.65985 l -4.82224,-6.3061 z m 29.28349,9.50002 -15.38965,9.36691 -1.37331,-2.25633 18.06291,-10.994 2.13461,3.50713 -11.09579,12.88743 c -0.3128,0.36964 -0.55886,0.65104 -0.73817,0.84422 -0.17933,0.19316 -0.34079,0.35586 -0.48438,0.48808 0.34228,-0.11871 0.65186,-0.21751 0.92876,-0.2964 0.27687,-0.0789 0.54398,-0.14625 0.80132,-0.20203 l 16.6413,-3.77628 2.14208,3.51938 -18.06291,10.994 -1.44796,-2.37896 15.38965,-9.36691 c -0.29646,0.10199 -0.59991,0.19706 -0.91036,0.2852 -0.3105,0.0881 -0.62141,0.17094 -0.93275,0.24842 l -16.6365,3.75655 -1.41063,-2.31764 11.0462,-12.94129 c 0.17913,-0.22107 0.3796,-0.44392 0.60141,-0.66855 0.22178,-0.22462 0.4665,-0.4576 0.73417,-0.69893 l 0,0 z m -4.47039,28.2523 18.83935,-9.60289 1.30385,2.55796 -18.83935,9.60289 -1.30385,-2.55796 z m 3.47736,6.64761 19.44864,-8.29982 1.23399,2.89155 -10.25103,15.11302 c -0.2217,0.33391 -0.43704,0.63392 -0.64604,0.90002 -0.20903,0.26607 -0.41358,0.49384 -0.61367,0.6833 l 15.76489,-6.72776 1.07621,2.52186 -19.44864,8.29982 -1.22271,-2.86515 10.36456,-15.39558 c 0.15994,-0.23475 0.33339,-0.46225 0.52036,-0.6825 0.18693,-0.22026 0.3899,-0.43954 0.60891,-0.65787 l -15.76489,6.72776 -1.07058,-2.50865 z m 7.98869,19.71348 19.9689,-6.95553 0.94441,2.71133 -19.96891,6.95553 -0.9444,-2.71133 z m 8.95502,4.2855 0.74457,2.66868 c -1.46721,0.43916 -2.50558,1.25795 -3.11512,2.45637 -0.60954,1.19842 -0.69184,2.59501 -0.24689,4.18977 0.43979,1.57631 1.11821,2.72588 2.03527,3.44871 0.91704,0.72281 1.94709,0.92476 3.09016,0.60585 1.55788,-0.43466 2.26662,-2.47053 2.12622,-6.1076 -0.0105,-0.21567 -0.0173,-0.38267 -0.0205,-0.50099 -0.11709,-2.94809 0.10357,-4.97943 0.66199,-6.09403 0.5584,-1.11461 1.57967,-1.87895 3.06382,-2.29303 1.81598,-0.50666 3.45994,-0.24996 4.9319,0.77012 1.47191,1.02009 2.51522,2.63171 3.12994,4.83487 0.62752,2.24925 0.54289,4.18054 -0.25391,5.79388 -0.79685,1.61332 -2.20208,2.71082 -4.21571,3.29252 l -0.75069,-2.63717 c 1.33857,-0.47283 2.2556,-1.22796 2.7511,-2.26539 0.49546,-1.03744 0.54131,-2.27978 0.13754,-3.72704 -0.3781,-1.35509 -0.97758,-2.35529 -1.79847,-3.0006 -0.82092,-0.64532 -1.72455,-0.83038 -2.71089,-0.55518 -1.57633,0.43979 -2.28357,2.44543 -2.12171,6.01692 0.019,0.53121 0.0336,0.93949 0.0437,1.22483 0.006,0.0579 0.0102,0.16109 0.0119,0.30966 0.0867,2.34053 -0.0739,3.95519 -0.48168,4.84397 -0.30918,0.67246 -0.75345,1.24353 -1.33282,1.7132 -0.57938,0.46964 -1.27467,0.81763 -2.08587,1.04398 -1.96349,0.5478 -3.72209,0.28085 -5.2758,-0.80085 -1.55372,-1.08174 -2.66493,-2.82097 -3.33363,-5.2177 -0.68928,-2.4705 -0.60163,-4.56905 0.26294,-6.29567 0.86457,-1.72663 2.44882,-2.96599 4.75275,-3.71808 l 0,0 z m -0.69888,25.76783 18.25114,-3.45871 -1.24289,-6.55857 2.52469,-0.47844 3.02303,15.95212 -2.52469,0.47844 -1.24289,-6.55856 -18.25114,3.45871 -0.53725,-2.83499 z m 20.97098,12.82475 -7.12634,0.72744 0.49856,4.88419 c 0.17978,1.76135 0.59248,2.97704 1.23809,3.64708 0.64558,0.67002 1.63484,0.93701 2.96777,0.80096 1.24721,-0.12733 2.0929,-0.55997 2.53707,-1.29794 0.44414,-0.738 0.57194,-2.03051 0.38342,-3.87754 l -0.49857,-4.88419 z m 2.18493,-3.05132 0.8324,8.15459 c 0.13507,1.32339 0.17732,2.30273 0.12675,2.93802 -0.0506,0.63526 -0.18394,1.21405 -0.39996,1.73635 -0.3952,0.93499 -1.00242,1.67759 -1.82166,2.22781 -0.81928,0.55018 -1.81444,0.88505 -2.98549,1.00461 -1.13299,0.11563 -2.12652,-0.0283 -2.98058,-0.43168 -0.85409,-0.40346 -1.55871,-1.06266 -2.11385,-1.9776 -0.14494,0.8421 -0.471,1.46462 -0.97821,1.86754 -0.50722,0.40289 -1.40387,0.71327 -2.68995,0.93115 l -3.44556,0.59702 c -0.73777,0.1234 -1.2824,0.2776 -1.63388,0.4626 -0.35149,0.18497 -0.58834,0.43282 -0.71054,0.74353 l -0.58554,0.0598 -0.33675,-3.29897 c 0.41075,-0.3113 1.3296,-0.59269 2.75656,-0.84415 0.0381,-0.004 0.0666,-0.007 0.0857,-0.009 l 2.72451,-0.45127 c 1.39936,-0.23906 2.28275,-0.63227 2.65016,-1.17962 0.3674,-0.54738 0.44809,-1.83027 0.24206,-3.84867 l -0.47232,-4.62713 -9.01148,0.91987 -0.28864,-2.82769 21.03629,-2.14733 z m -10.44369,25.24603 0.0826,6.58864 9.28931,-3.38972 -9.37188,-3.19892 z m -8.86149,-6.00487 21.24235,7.58686 0.0398,3.17231 -21.04519,8.1455 -0.039,-3.11489 6.28784,-2.31843 -0.10433,-8.32551 -6.34415,-2.17449 -0.0372,-2.97135 z m -0.28764,25.72999 18.53058,1.29792 0.46641,-6.65898 2.56335,0.17955 -1.13444,16.19635 -2.56335,-0.17954 0.46642,-6.65898 -18.53058,-1.29793 0.20161,-2.87839 z m -1.11187,12.10685 20.97522,2.67899 -0.36375,2.84796 -20.97521,-2.67899 0.36374,-2.84796 z m 9.09271,11.58087 c -2.65513,-0.53457 -4.85416,-0.3403 -6.59709,0.58278 -1.74294,0.92307 -2.83257,2.46824 -3.26891,4.63551 -0.43444,2.15785 -0.0258,3.99492 1.22607,5.51119 1.25183,1.51623 3.2053,2.54164 5.86043,3.07621 2.66449,0.53643 4.86492,0.34733 6.60129,-0.56729 1.73634,-0.91467 2.82174,-2.45092 3.2562,-4.60878 0.43632,-2.16727 0.0319,-4.01324 -1.21337,-5.53792 -1.24526,-1.5247 -3.20013,-2.55527 -5.86462,-3.0917 l 0,0 z m 0.5865,-2.91313 c 3.42444,0.68944 5.92547,2.09843 7.50311,4.22697 1.5776,2.12853 2.05664,4.73146 1.4371,7.80878 -0.61769,3.06792 -2.06243,5.27376 -4.33423,6.61755 -2.27184,1.34374 -5.12466,1.66996 -8.55848,0.97865 -3.42446,-0.68947 -5.92644,-2.09377 -7.50595,-4.2129 -1.57951,-2.11918 -2.06043,-4.71272 -1.44277,-7.78064 0.61956,-3.07732 2.06854,-5.29207 4.34694,-6.64427 2.2784,-1.35221 5.12982,-1.68359 8.55428,-0.99414 l 0,0 z m -15.27663,21.03329 20.18334,6.30629 -0.9376,3.00078 -17.60686,4.84617 c -0.38536,0.11019 -0.74389,0.1987 -1.07559,0.26552 -0.3317,0.0668 -0.63514,0.10735 -0.91032,0.12165 l 16.36042,5.11183 -0.81772,2.61712 -20.18334,-6.3063 0.92903,-2.97338 17.87662,-4.98748 c 0.27402,-0.0748 0.55362,-0.13534 0.83881,-0.18159 0.28516,-0.0463 0.58189,-0.0814 0.8902,-0.10537 l -16.36043,-5.11183 0.81344,-2.60341 z"
   id="text4662"
   style="font-size:29.39999962px;font-style:normal;font-variant:normal;font-weight:normal;font-stretch:normal;text-align:center;line-height:125%;writing-mode:lr-tb;text-anchor:middle;fill:#263f78;fill-opacity:1;stroke:none;font-family:Swis721 BT;-inkscape-font-specification:Swis721 BT"
   inkscape:connector-curvature="0" /><path
   d="m 51.48229,358.20325 11.279806,-6.70254 1.466637,2.46823 -11.304489,6.7172 c -1.703085,1.01198 -2.738219,2.13637 -3.105404,3.37317 -0.367197,1.2368 -0.08147,2.64503 0.857185,4.2247 0.928862,1.5632 2.035276,2.48378 3.319243,2.76173 1.283947,0.27793 2.765123,-0.0817 4.443532,-1.07906 l 11.304489,-6.7172 1.47397,2.48058 -11.279806,6.70253 c -2.435334,1.44707 -4.651046,1.91481 -6.647144,1.40324 -1.996118,-0.5116 -3.717712,-1.98505 -5.164788,-4.42036 -1.34931,-2.27078 -1.744232,-4.34051 -1.184767,-6.20921 0.559457,-1.86871 2.073301,-3.53638 4.541536,-5.00301 l 0,0 z m 4.685636,22.81373 2.640173,-1.81042 1.664286,2.42707 -2.640173,1.81041 -1.664286,-2.42706 z m 9.708618,1.98373 1.702875,2.18552 c -1.190244,0.96378 -1.839553,2.11575 -1.947928,3.4559 -0.108387,1.34015 0.346226,2.66324 1.36384,3.96927 1.005834,1.29091 2.070223,2.09642 3.193169,2.41652 1.122925,0.32008 2.152447,0.11544 3.08857,-0.61394 1.275812,-0.99408 1.157701,-3.14655 -0.354334,-6.4574 -0.09167,-0.1955 -0.161473,-0.34736 -0.209397,-0.4556 -1.228651,-2.68241 -1.796501,-4.64521 -1.703554,-5.88841 0.09293,-1.24318 0.747109,-2.33829 1.962554,-3.28531 1.487192,-1.15877 3.105375,-1.54607 4.854556,-1.1619 1.749143,0.38419 3.326637,1.47842 4.732486,3.28269 1.435214,1.84202 2.090864,3.66058 1.966953,5.45569 -0.123961,1.7951 -1.006692,3.34429 -2.648194,4.64758 l -1.696552,-2.15404 c 1.058449,-0.94605 1.619714,-1.99302 1.683797,-3.14092 0.06404,-1.14789 -0.365678,-2.31446 -1.28915,-3.4997 -0.864692,-1.10974 -1.799305,-1.80708 -2.80384,-2.09202 -1.004572,-0.28493 -1.910735,-0.11271 -2.718491,0.51667 -1.290939,1.00585 -1.182925,3.12979 0.324043,6.37182 0.219478,0.48412 0.388093,0.85624 0.505846,1.11634 0.02773,0.0512 0.07062,0.14515 0.128668,0.28192 0.969619,2.13201 1.434714,3.68654 1.395285,4.66361 -0.03044,0.7395 -0.224358,1.43656 -0.581768,2.09117 -0.357444,0.65459 -0.868325,1.2407 -1.532645,1.75834 -1.608009,1.25288 -3.33612,1.67426 -5.18434,1.26416 -1.848241,-0.41013 -3.537031,-1.59659 -5.066376,-3.55939 -1.576413,-2.02321 -2.292842,-3.99763 -2.14929,-5.92327 0.143545,-1.92565 1.13795,-3.67408 2.983217,-5.2453 l 0,0 z m 7.70652,20.65724 2.401159,-2.1172 1.94631,2.20734 -2.401159,2.11721 -1.94631,-2.20735 z m 30.188656,4.30479 -3.62559,-3.35286 -10.945544,11.83587 3.625592,3.35287 c 1.552811,1.436 3.192425,2.017 4.918849,1.74298 1.726395,-0.27404 3.502543,-1.39825 5.328443,-3.37265 1.74788,-1.89009 2.68241,-3.71114 2.80359,-5.46315 0.12114,-1.75201 -0.58064,-3.33303 -2.10534,-4.74306 l 0,0 z m -18.433443,8.43079 14.356888,-15.52471 5.912665,5.4679 c 2.16409,2.00133 3.22275,4.17961 3.17599,6.53484 -0.0468,2.35524 -1.19757,4.75192 -3.45229,7.19007 -2.33273,2.52245 -4.74272,3.93386 -7.229976,4.23425 -2.487288,0.30037 -4.798928,-0.53711 -6.934926,-2.51243 l -5.828351,-5.38992 z m 16.012453,14.43307 12.94854,-16.71742 11.91669,9.23011 -1.60868,2.07691 -9.66954,-7.48958 -3.86786,4.99367 8.93184,6.91819 -1.51198,1.95207 -8.93184,-6.9182 -4.34255,5.60652 9.86248,7.63902 -1.61747,2.08826 -12.10963,-9.37955 z m 24.24764,3.73918 4.04446,2.62829 c 1.40431,0.9126 2.53135,1.32543 3.38112,1.23847 0.84973,-0.0869 1.62921,-0.6761 2.33845,-1.76747 0.68313,-1.05123 0.89647,-1.98546 0.64004,-2.8027 -0.25648,-0.81723 -1.0307,-1.64564 -2.32266,-2.48524 l -4.22502,-2.74563 -3.85639,5.93428 z m -8.65742,8.05317 11.52223,-17.73062 6.5241,4.23968 c 1.05924,0.68838 1.83183,1.26463 2.31776,1.72877 0.48589,0.46415 0.86729,0.9574 1.1442,1.47973 0.46668,0.86256 0.6423,1.80418 0.52689,2.82485 -0.11547,1.0207 -0.50954,2.04863 -1.18224,3.08382 -0.64145,0.98704 -1.39985,1.73256 -2.27521,2.23657 -0.87541,0.50401 -1.82825,0.74083 -2.85854,0.71044 -0.5922,-0.0196 -1.21038,-0.16165 -1.85453,-0.42618 -0.64418,-0.26453 -1.62429,-0.82441 -2.94033,-1.67965 l -3.65927,-2.37798 -4.85765,7.47503 -2.40741,-1.56446 z m 23.78816,4.38805 5.80347,3.12038 1.53607,-9.76842 -7.33954,6.64804 z m -9.54674,4.84192 16.92989,-14.90558 2.79426,1.5024 -3.07236,22.35643 -2.74369,-1.47522 1.01879,-6.62376 -7.33336,-3.94296 -4.97627,4.49592 -2.61726,-1.40723 z m 29.32566,-5.8531 -2.84207,6.57546 4.50662,1.94787 c 1.62519,0.70245 2.88771,0.93537 3.78759,0.69874 0.89985,-0.23661 1.61557,-0.96986 2.14717,-2.19974 0.49739,-1.15081 0.53236,-2.1001 0.10491,-2.84787 -0.42749,-0.74776 -1.49335,-1.48995 -3.19759,-2.22659 l -4.50663,-1.94787 z m -1.59742,-3.39599 7.52422,3.25215 c 1.22108,0.5278 2.09654,0.96875 2.62641,1.32286 0.52982,0.35414 0.96999,0.75291 1.32051,1.19632 0.62332,0.80116 0.97525,1.69352 1.05581,2.67709 0.0805,0.98358 -0.11273,2.01564 -0.57974,3.09616 -0.45187,1.04541 -1.06223,1.84244 -1.83109,2.39111 -0.76889,0.54867 -1.68809,0.84209 -2.7576,0.88026 0.66435,0.53739 1.04864,1.12574 1.15288,1.76506 0.1042,0.63933 -0.0624,1.57345 -0.49967,2.80236 l -1.16,3.2989 c -0.25227,0.7042 -0.3834,1.25484 -0.3934,1.65191 -0.01,0.39707 0.0907,0.72474 0.30234,0.98301 l -0.23352,0.54027 -3.04395,-1.31567 c -0.0713,-0.51043 0.13138,-1.44978 0.60811,-2.81805 0.0152,-0.0351 0.0266,-0.0615 0.0342,-0.0791 l 0.93542,-2.59839 c 0.47409,-1.33812 0.56188,-2.30107 0.26337,-2.88885 -0.29854,-0.58777 -1.379,-1.28414 -3.24137,-2.08912 l -4.26944,-1.84535 -3.59388,8.31486 -2.6091,-1.12772 8.38952,-19.41011 z m 14.76251,28.7076 5.95893,-17.59426 -6.32251,-2.14135 0.8243,-2.43383 15.37798,5.20831 -0.8243,2.43383 -6.32251,-2.14135 -5.95894,17.59427 -2.73295,-0.92562 z m 18.97877,-12.84225 -4.18715,17.52279 -2.56908,-0.6139 4.91449,-20.56658 3.99324,0.9542 1.33617,16.95338 c 0.0422,0.48239 0.0687,0.85526 0.0796,1.11861 0.0109,0.26335 0.0127,0.49255 0.005,0.68761 0.15675,-0.32661 0.30461,-0.61598 0.4436,-0.86813 0.13895,-0.25214 0.27924,-0.48921 0.42086,-0.71121 l 9.03788,-14.47445 4.0072,0.95754 -4.91449,20.56658 -2.7087,-0.64725 4.18716,-17.52279 c -0.13636,0.28231 -0.28256,0.5647 -0.4386,0.84719 -0.15608,0.28251 -0.31624,0.56157 -0.48048,0.83718 l -9.0485,14.45715 -2.63889,-0.63057 -1.40932,-16.9561 c -0.0308,-0.28286 -0.0479,-0.58213 -0.0511,-0.8978 -0.003,-0.31564 0.004,-0.65346 0.0208,-1.01345 l 0,0 z m 17.81592,22.37795 2.91949,-20.9431 14.92888,2.0811 -0.3627,2.60189 -12.11373,-1.68866 -0.87208,6.25591 11.18956,1.55984 -0.3409,2.44549 -11.18956,-1.55983 -0.97911,7.02368 12.35543,1.72236 -0.36468,2.61611 -15.1706,-2.11479 z m 19.35952,2.51547 1.0603,-21.119 3.1399,0.15764 9.09392,15.83627 c 0.20303,0.34558 0.37836,0.6706 0.52599,0.97506 0.1476,0.30447 0.26272,0.58813 0.34536,0.851 l 0.85947,-17.11887 2.73845,0.13749 -1.06031,21.11901 -3.11121,-0.15621 -9.29819,-16.06212 c -0.14095,-0.24662 -0.26945,-0.50221 -0.38553,-0.76678 -0.11608,-0.26454 -0.22427,-0.54307 -0.32457,-0.83559 l -0.85947,17.11887 -2.72411,-0.13677 z m 26.63471,0.63498 -0.61364,-18.56584 -6.67165,0.22051 -0.0849,-2.56822 16.22717,-0.53635 0.0849,2.56823 -6.67165,0.22051 0.61364,18.56584 -2.88387,0.0953 z m 22.00434,-12.14748 c 0.42594,2.6747 1.37563,4.66758 2.84908,5.97863 1.47344,1.31106 3.30178,1.79275 5.48502,1.44507 2.17377,-0.34617 3.75259,-1.37044 4.73648,-3.07283 0.98385,-1.70237 1.26282,-3.8909 0.8369,-6.56561 -0.42746,-2.68413 -1.37281,-4.68012 -2.83603,-5.98797 -1.46326,-1.30782 -3.28177,-1.78865 -5.45554,-1.4425 -2.18324,0.3477 -3.77189,1.37111 -4.76596,3.07025 -0.99408,1.69918 -1.27739,3.89083 -0.84995,6.57496 l 0,0 z m -2.9346,0.46733 c -0.54936,-3.44968 -0.10208,-6.28524 1.34182,-8.50667 1.44391,-2.2214 3.71586,-3.57895 6.81586,-4.07264 3.09054,-0.49214 5.66196,0.0917 7.71427,1.75147 2.05227,1.65984 3.35385,4.21931 3.90473,7.67844 0.54934,3.44971 0.10679,6.28451 -1.32764,8.50442 -1.43448,2.21992 -3.69698,3.57595 -6.78751,4.06812 -3.10001,0.49367 -5.68126,-0.091 -7.74375,-1.75405 -2.0625,-1.66303 -3.36842,-4.21939 -3.91778,-7.66909 l 0,0 z m 25.7222,6.22413 -5.17015,-20.50381 13.76664,-3.47133 0.64934,2.57515 -10.98269,2.76935 1.55139,6.15253 9.59072,-2.41835 0.63179,2.50556 -9.59072,2.41835 2.33763,9.27056 -2.78395,0.70199 z m 36.67847,-19.93992 2.59611,-1.0081 c 0.81589,2.44488 0.73958,4.67411 -0.22894,6.68771 -0.96855,2.01361 -2.65719,3.48809 -5.06593,4.42343 -2.77454,1.07739 -5.31632,0.97614 -7.62535,-0.30374 -2.30903,-1.27987 -4.1131,-3.59255 -5.41219,-6.93805 -1.19863,-3.08676 -1.32522,-5.85833 -0.37976,-8.31472 0.94547,-2.45635 2.81885,-4.22843 5.62014,-5.31623 2.23032,-0.86604 4.2804,-0.99992 6.15025,-0.40165 1.86983,0.59833 3.30253,1.8489 4.2981,3.75172 l -2.62286,1.01849 c -0.75559,-1.20549 -1.73772,-1.97653 -2.94639,-2.31313 -1.20869,-0.33655 -2.56242,-0.21384 -4.0612,0.36813 -1.99837,0.77602 -3.27651,2.07825 -3.8344,3.90672 -0.55789,1.82849 -0.34145,4.01848 0.64933,6.56996 0.93535,2.40876 2.25855,4.11765 3.96962,5.12666 1.71105,1.00902 3.51224,1.14631 5.40357,0.41189 1.61474,-0.62703 2.74246,-1.64243 3.38316,-3.0462 0.64067,-1.40376 0.67625,-2.94472 0.10674,-4.62289 l 0,0 z m 6.31764,-5.74041 c 1.22073,2.4177 2.73254,4.0264 4.53543,4.82609 1.80288,0.79971 3.69104,0.70134 5.6645,-0.2951 1.96489,-0.99211 3.1565,-2.44878 3.57483,-4.37001 0.41831,-1.92122 0.0171,-4.09067 -1.20363,-6.50838 -1.22506,-2.42621 -2.73367,-4.0392 -4.52585,-4.83896 -1.79219,-0.79972 -3.67073,-0.70353 -5.63564,0.28856 -1.97344,0.99646 -3.17468,2.4553 -3.60369,4.37655 -0.42902,1.92129 -0.031,4.09503 1.19405,6.52125 l 0,0 z m -2.65263,1.33936 c -1.57444,-3.11821 -2.01251,-5.9552 -1.31421,-8.51098 0.69831,-2.55575 2.44852,-4.54105 5.25065,-5.95592 2.79358,-1.41051 5.42061,-1.63803 7.88109,-0.68258 2.46046,0.9555 4.48008,2.99662 6.05886,6.12336 1.57443,3.11824 2.01677,5.95308 1.32703,8.50452 -0.68978,2.55146 -2.43145,4.53245 -5.22502,5.94298 -2.80214,1.41485 -5.43879,1.64455 -7.90996,0.68911 -2.47118,-0.95543 -4.49399,-2.99226 -6.06844,-6.11049 l 0,0 z m 18.93589,-18.38503 9.74777,15.15128 -2.22138,1.42915 -11.44102,-17.78313 3.4528,-2.2214 13.16013,10.77095 c 0.37732,0.30349 0.66477,0.54245 0.86236,0.71689 0.19758,0.17446 0.36425,0.33181 0.50001,0.47206 -0.12721,-0.33921 -0.2337,-0.64623 -0.31946,-0.92107 -0.0858,-0.27482 -0.15978,-0.54017 -0.22196,-0.79605 l -4.19009,-16.54195 3.46487,-2.22917 11.44102,17.78313 -2.34211,1.50683 -9.74778,-15.15128 c 0.10935,0.29383 0.21196,0.59482 0.30782,0.90297 0.0958,0.3082 0.18638,0.61696 0.2716,0.92627 l 4.17025,16.53764 -2.28175,1.46799 -13.21272,-10.72004 c -0.22547,-0.17356 -0.45325,-0.36841 -0.68334,-0.58456 -0.23008,-0.21611 -0.46909,-0.45494 -0.71702,-0.71651 l 0,0 z m 19.29092,-12.96464 11.31288,14.02138 -2.05572,1.65862 -13.27799,-16.45696 3.19531,-2.57808 14.23699,9.30111 c 0.40762,0.26138 0.71899,0.46821 0.93411,0.62051 0.21511,0.15232 0.39766,0.29094 0.54765,0.41585 -0.16277,-0.32365 -0.3015,-0.61752 -0.41618,-0.8816 -0.1147,-0.26407 -0.21665,-0.51998 -0.30586,-0.76773 l -5.93589,-15.99869 3.20649,-2.58709 13.27799,16.45696 -2.16745,1.74876 -11.31288,-14.02137 c 0.14016,0.28043 0.27438,0.56872 0.40266,0.86485 0.12827,0.29618 0.25131,0.59347 0.36914,0.89189 l 5.9157,15.99653 -2.11158,1.7037 -14.28384,-9.24487 c -0.24274,-0.14844 -0.49006,-0.3178 -0.74196,-0.50808 -0.25188,-0.19026 -0.51507,-0.40215 -0.78957,-0.63569 l 0,0 z m 28.6041,-0.42574 -14.77852,-15.1239 10.78078,-10.53458 1.83603,1.87894 -8.74783,8.54806 4.41449,4.51766 8.08045,-7.89592 1.72566,1.76599 -8.08045,7.89592 4.95628,5.0721 8.92237,-8.71862 1.84606,1.8892 -10.95532,10.70515 z m 1.55086,-28.13866 5.42126,4.6823 3.20911,-3.71557 c 1.15728,-1.33991 1.75791,-2.47457 1.8019,-3.404 0.044,-0.92939 -0.44103,-1.83199 -1.45503,-2.70779 -0.9488,-0.81946 -1.84397,-1.13736 -2.68548,-0.9537 -0.84151,0.1837 -1.86906,0.9781 -3.08265,2.38319 l -3.20911,3.71557 z m -3.71866,0.50607 5.35791,-6.20349 c 0.86953,-1.00673 1.55262,-1.70977 2.04927,-2.10913 0.49666,-0.39932 1.00903,-0.69972 1.53711,-0.90122 0.95116,-0.35452 1.90798,-0.42281 2.87047,-0.20485 0.9625,0.21801 1.88918,0.71171 2.78004,1.48113 0.8619,0.74443 1.43934,1.56563 1.73233,2.46359 0.29298,0.898 0.29739,1.86289 0.0132,2.89466 0.7118,-0.47273 1.38829,-0.663 2.02946,-0.57082 0.64117,0.0922 1.48242,0.53111 2.52375,1.31667 l 2.79953,2.09547 c 0.5962,0.45173 1.08222,0.74188 1.45804,0.87044 0.3758,0.12859 0.71861,0.13066 1.02843,0.006 l 0.44543,0.38472 -2.16756,2.50964 c -0.50833,-0.0849 -1.34373,-0.55989 -2.5062,-1.42482 -0.029,-0.025 -0.0507,-0.0438 -0.0652,-0.0563 l -2.19854,-1.67124 c -1.13449,-0.85338 -2.02686,-1.22577 -2.67708,-1.11716 -0.65024,0.10864 -1.63844,0.9307 -2.96462,2.46616 l -3.04022,3.52002 6.85534,5.9209 -1.8579,2.15112 -16.00304,-13.8217 z m 31.36549,-18.26194 1.62507,-2.26168 c 2.01808,1.60327 3.17088,3.51282 3.45839,5.72866 0.28749,2.21586 -0.32266,4.37302 -1.83044,6.47147 -1.73676,2.41712 -3.92181,3.71961 -6.55513,3.90747 -2.63333,0.18788 -5.40726,-0.76526 -8.32179,-2.85943 -2.68912,-1.9322 -4.30794,-4.18543 -4.85645,-6.75971 -0.54848,-2.57424 0.054,-5.08159 1.80752,-7.52204 1.39612,-1.94299 3.04082,-3.17413 4.93413,-3.69341 1.89332,-0.51922 3.77636,-0.25334 5.64914,0.79766 l -1.64182,2.28499 c -1.29108,-0.59769 -2.53486,-0.7077 -3.73134,-0.33003 -1.19646,0.37771 -2.26379,1.21941 -3.20198,2.5251 -1.2509,1.74096 -1.61109,3.52973 -1.08056,5.36632 0.53055,1.83662 1.90722,3.55349 4.13003,5.15063 2.09846,1.5078 4.13991,2.21747 6.12435,2.12902 1.98445,-0.0885 3.56862,-0.95651 4.75252,-2.6042 1.01078,-1.40673 1.40149,-2.87306 1.17214,-4.399 -0.22937,-1.5259 -1.04062,-2.83651 -2.43378,-3.93182 l 0,0 z m 10.19935,-1.21907 -18.19075,-10.78117 7.68515,-12.96692 2.25995,1.33941 -6.23595,10.52173 5.43376,3.22044 5.7602,-9.71901 2.12411,1.2589 -5.7602,9.71902 6.10063,3.61567 6.36037,-10.73167 2.2723,1.34673 -7.80957,13.17687 z"
   id="text4682"
   style="font-size:29.39999962px;font-style:normal;font-variant:normal;font-weight:normal;font-stretch:normal;text-align:center;line-height:125%;writing-mode:lr-tb;text-anchor:middle;fill:#263f78;fill-opacity:1;stroke:none;font-family:Swis721 BT;-inkscape-font-specification:Swis721 BT"
   inkscape:connector-curvature="0" /></svg>